<svg xmlns="http://www.w3.org/2000/svg" xmlns:xlink="http://www.w3.org/1999/xlink" version="1.1" x="0px" y="0px" width="270.438px" height="182.967px" viewBox="0 0 270.438 182.967" enable-background="new 0 0 270.438 182.967" xml:space="preserve"><g><path fill="#FFFFFF" d="M270.401 89.053c0.474-6.706-3.631-13.835-13.866-14.622c-3.459-0.242-6.928-0.504-10.397-0.756 c-3.146-0.242-6.302-0.474-9.449-0.706l-2.964 41.9l6.504 0.453l1.028-14.551l9.146 0.646l11.658 15.449l7.976 0.6 l-12.342-16.064l1.472-0.192C268.283 100 270.1 93.1 270.4 89.053z M255.859 96.052c-0.271 0-0.555-0.01-0.847-0.03 l-13.352-0.948l1.099-15.641l13.362 0.948c5.748 0.4 8 4.5 7.8 8.4C263.654 92.1 261.4 96.1 255.9 96.052z"/><polygon fill="#FFFFFF" points="207.2,106.4 206.8,94.9 230.4,94.1 230.2,88.1 206.6,88.9 206.2,77.2 230.7,76.3 230.5,70.1 199.5,71.1 200.8,110.5 200.9,111.3 200.9,112.2 200.9,113 203.5,112.9 204.4,112.9 205.2,112.9 231.9,112 231.7,105.6"/><polygon fill="#FFFFFF" points="199.2,112.1 181.1,111.3 182.7,75.3 177.6,75.1 177.7,81.7 175.9,81.7 175.4,91.9 176.6,91.9 176.8,101.2 175,101.3 174.4,116.9 203.3,118.2 203.5,114.6 199.3,114.8"/><polygon fill="#FFFFFF" points="241.8,52.6 210.3,49.8 211.6,35.4 241.9,38.1 242.6,30 212.3,27.3 213.6,12.7 245,15.5 245.8,6.9 205.5,3.4 201.7,47.4 201.2,52.9 201,55.2 200.9,56.1 200.8,57.7 241,61.3"/><polygon fill="#FFFFFF" points="188.2,5.1 188.2,5.9 188.5,9.5 188.6,11.2 188.7,12.8 191.7,55 199.4,54.5 200,47.4 196.7,0 187.9,0.6 188.1,4.2"/><path fill="#FFFFFF" d="M145.165 32.724l8.017 25.23l9.833 0.837l23.95-46.347L186.5 5.799l-6.252-0.534l-21.399 43.7 L145.195 2.289l-9.983-0.847l3.731 11.728C143.047 18.7 145.4 25.5 145.2 32.724z"/><polygon fill="#FFFFFF" points="174.9,93.7 174.5,93.7 173.7,93.7 153,94 152.8,80.4 174.2,80 175.1,80 175.9,80 175.8,74.1 175.8,73.8 174.5,73.8 148.2,74.3 147.7,81 146.3,80.9 146.9,116.2 153.4,116.1 153.1,99.9 173.4,99.6 174.3,99.6 175,99.5"/><polygon fill="#FFFFFF" points="146.5,73.5 146.6,72.9 144.4,72.8 117,70.8 114.6,103.4 113.9,112.5 120.4,113 121.6,96.9 143.4,98.5 143.9,92.6 122,91 123,77.4 144.6,79 145.4,79.1 146.1,79.1 146.2,77.4 146.5,74.3"/><path fill="#FFFFFF" d="M130.875 31.513c1.292 0.2 2.542-0.021 3.641-0.544c-0.202-4.478-1.835-8.572-4.437-11.87 c-2.329 0.656-4.185 2.633-4.568 5.184C124.997 27.8 127.4 31 130.9 31.513z"/><path fill="#FFFFFF" d="M122.818 42.434c-0.394 2.6 0.9 5.1 3.1 6.414c3.469-2.491 6.141-6.03 7.543-10.154 c-0.908-0.847-2.068-1.432-3.378-1.624C126.58 36.6 123.3 39 122.8 42.434z"/><path fill="#FFFFFF" d="M115.397 20.179c3.478 0.5 6.715-1.896 7.23-5.365c0.081-0.554 0.091-1.099 0.03-1.624 c-2.692-1.27-5.707-1.987-8.884-1.987c-1.129 0-2.249 0.091-3.327 0.272c-0.192 0.464-0.323 0.958-0.403 1.5 C109.527 16.4 111.9 19.7 115.4 20.179z"/><path fill="#FFFFFF" d="M111.947 43.423c-3.469-0.514-6.716 1.896-7.23 5.364c-0.091 0.636-0.091 1.3 0 1.9 c2.732 1.3 5.8 2.1 9 2.078c0.999 0 1.987-0.071 2.945-0.212c0.282-0.575 0.484-1.2 0.584-1.876 C117.827 47.2 115.4 43.9 111.9 43.423z"/><path fill="#FFFFFF" d="M112.079 76.156l-6.454 0.182l0.696 24.142c0.111 3.902-0.837 7.18-2.723 9.5 c-1.946 2.349-4.86 3.64-8.431 3.741c-0.162 0.01-0.323 0.01-0.484 0.01c-3.65 0-6.605-1.169-8.662-3.328 c-2.067-2.148-3.248-5.294-3.358-9.217l-0.686-24.142l-6.413 0.191l-0.03 0.454l0.675 23.7 c0.384 13.4 9.7 18.1 18.4 18.131c0.242 0 0.5 0 0.716-0.01c5.335-0.151 9.772-1.896 12.817-5.042 c2.693-2.783 4.266-6.646 4.619-11.284c0.061-0.918 0.091-1.866 0.061-2.844L112.079 76.156z"/><path fill="#FFFFFF" d="M104.757 21.197c0.374-2.541-0.816-4.961-2.843-6.272c-3.52 2.45-6.242 5.959-7.694 10.1 c0.897 0.8 2 1.4 3.3 1.563C100.996 27.1 104.2 24.7 104.8 21.197z"/><path fill="#FFFFFF" d="M102.065 39.349c0.514-3.469-1.896-6.716-5.365-7.231c-1.301-0.191-2.572 0.031-3.671 0.6 c0.142 4.5 1.7 8.6 4.3 11.92C99.715 44 101.7 42 102.1 39.349z"/><path fill="#FFFFFF" d="M37.537 60.757l-3.459-42.535l21.287 24.636l1.22-0.101l17.436-27.65L77.46 57.51l8.874-0.716 l-0.958-11.708c-2.501-5.375-3.52-11.505-2.582-17.799c0.192-1.311 0.463-2.591 0.827-3.832L81.907 2.42L71.097 3.3 L55.133 29.476L35.136 6.222L24.255 7.11l4.417 54.374L37.537 60.757z"/><path fill="#FFFFFF" d="M85.961 41.698c0.312 0.9 0.7 1.8 1.1 2.632c4.034 8.7 12.2 15.3 22.4 16.8 c16.135 2.4 31.15-8.743 33.54-24.878c0.182-1.21 0.283-2.419 0.312-3.61c0.031-1.049 0-2.078-0.09-3.086 c-0.353-4.567-1.765-8.894-4.034-12.707c-0.524-0.887-1.099-1.745-1.714-2.571c-4.498-6.041-11.294-10.377-19.341-11.567 C103.265 0.5 89.3 9.8 85.4 23.95c-0.252 0.907-0.464 1.845-0.625 2.803c-0.06 0.263-0.101 0.534-0.141 0.8 c-0.212 1.392-0.312 2.773-0.322 4.145c-0.021 1.8 0.1 3.5 0.4 5.184C84.982 38.5 85.4 40.1 86 41.698z M119.118 50.925c-0.061 0.413-0.151 0.807-0.272 1.19c-1.149 3.822-4.981 6.323-9.035 5.717c-4.104-0.615-7.049-4.175-6.999-8.218 c0.011-0.363 0.041-0.736 0.091-1.1c0.666-4.466 4.84-7.563 9.317-6.897C116.687 42.3 119.8 46.5 119.1 50.925z M137.219 44.572c-0.656 4.478-4.841 7.573-9.308 6.908c-1.392-0.202-2.642-0.747-3.7-1.553c-2.34-1.735-3.671-4.68-3.207-7.765 c0.666-4.468 4.84-7.563 9.317-6.908c1.372 0.2 2.6 0.7 3.7 1.522C136.331 38.5 137.7 41.5 137.2 44.572z M128.779 17.617c1.3-0.534 2.753-0.726 4.234-0.503c3.046 0.5 5.5 2.5 6.5 5.233c0.475 1.3 0.6 2.7 0.4 4.1 c-0.464 3.116-2.622 5.556-5.405 6.535c-1.22 0.433-2.552 0.574-3.913 0.373c-4.467-0.666-7.573-4.841-6.908-9.318 C124.14 21 126.2 18.7 128.8 17.617z M108.227 12.676c0.04-0.263 0.091-0.515 0.151-0.756 c0.998-4.064 4.951-6.777 9.167-6.152c4.165 0.6 7.1 4.3 7 8.431c-0.01 0.292-0.041 0.595-0.081 0.9 c-0.666 4.468-4.84 7.563-9.308 6.908C110.657 21.3 107.6 17.1 108.2 12.676z M90.347 19.1 c0.666-4.467 4.851-7.563 9.318-6.898c1.482 0.2 2.8 0.8 3.9 1.715c2.198 1.8 3.4 4.6 3 7.6 c-0.666 4.477-4.84 7.573-9.318 6.908c-1.351-0.202-2.582-0.726-3.62-1.482C91.255 25.1 89.9 22.2 90.3 19.06z M87.655 37.21c0.464-3.105 2.622-5.556 5.405-6.524c1.21-0.434 2.552-0.585 3.913-0.383c4.467 0.7 7.6 4.8 6.9 9.3 c-0.454 3.066-2.562 5.496-5.294 6.495c-1.24 0.464-2.611 0.625-4.014 0.413c-3.812-0.564-6.625-3.691-6.968-7.361 C87.544 38.5 87.6 37.9 87.7 37.21z"/><polygon fill="#FFFFFF" points="66.5,90.5 43.4,89 44.6,70.6 38.1,70.2 36.4,95.9 36.3,98.5 35.8,106.2 35.6,108.5 35.4,112.1 41.9,112.5 43,94.9 66.2,96.4 65,114 71.5,114.4 73.8,77.6 74,75.5 74.1,72.5 67.7,72.1"/><path fill="#FFFFFF" d="M17.721 88.842c-3.69-0.101-10.558-0.292-11.021-5.355c-0.293-3.207 1.986-6.867 9.256-7.533 c0.464-0.04 0.928-0.071 1.382-0.071c3.832 0 7.6 1.5 9.6 3.691l4.851-3.076c-2.814-4.043-7.422-6.09-13.715-6.09 c-0.928 0-1.896 0.04-2.884 0.132C7.264 71.336-0.431 75.7 0.3 83.82C1.153 92.9 9.2 94.4 17.8 94.6 c2.703 0 10.9 0.2 11.5 6.252c0.414 4.548-3.489 7.755-10.175 8.371c-0.615 0.049-1.23 0.081-1.835 0.1 c-5.102 0-9.207-1.987-11.405-5.497l-5.082 3.248c3.499 6.1 9.5 8.6 18.7 7.795c5.768-0.524 11.658-2.683 14.512-7.059 l0.736-11.627C32.343 90.6 26.1 89.1 17.7 88.842z"/></g><path fill="#FFFFFF" d="M14.344 146.501c-8.344 3.934-19.43-4.99-11.719-15.933c0 0-1.755-1.438-2.373-1.954 c-0.347-0.289-0.39-0.625 0.222-0.716c0.978-0.143 5.88-0.931 7.838-1.252c0.397-0.065 0.6 0.2 0.6 0.7 c-0.045 0.925-0.229 5.636-0.292 7.515c-0.022 0.689-0.266 0.734-0.727 0.312c-0.564-0.516-2.127-2.087-2.127-2.087 c-5.615 6.3 1.1 12.7 7.6 10.152c0.237-0.094 0.347-0.001 0.4 0.208c0.208 0.6 0.7 1.8 0.9 2.5 C14.741 146.3 14.7 146.3 14.3 146.501z"/><path fill="#FFFFFF" d="M10.783 124.767c8.343-3.934 19.4 5 11.7 15.933c0 0 1.8 1.4 2.4 2 c0.347 0.3 0.4 0.625-0.222 0.716c-0.979 0.143-5.88 0.931-7.838 1.252c-0.397 0.065-0.622-0.181-0.595-0.733 c0.045-0.925 0.23-5.636 0.292-7.515c0.023-0.689 0.266-0.734 0.727-0.312c0.564 0.5 2.1 2.1 2.1 2.1 c5.614-6.27-1.059-12.748-7.57-10.152c-0.237 0.094-0.347 0.001-0.418-0.208c-0.208-0.608-0.664-1.798-0.899-2.517 C10.387 125 10.4 124.9 10.8 124.767z"/><path fill="#FFFFFF" d="M49.225 140.385c-1.401 0.847-2.96 1.284-4.717 1.284c-5.133 0-9.294-4.161-9.294-9.294 s4.161-9.294 9.294-9.294s9.294 4.2 9.3 9.294c0 1.739-0.52 3.456-1.351 4.848c0 0 5.3 5.4 6.4 6.3 c1.028 1 1.4 1.6 0 2.961c-1.357 1.398-2.1 0.89-2.591 0.452C54.86 145.8 49.2 140.4 49.2 140.385z M50.252 132.4 c0-3.173-2.572-5.745-5.745-5.745s-5.745 2.572-5.745 5.745s2.572 5.7 5.7 5.745S50.252 135.5 50.3 132.374z"/><g><path fill="#FFFFFF" d="M100.98 173.939c0.287-0.583 0.49-1.219 0.591-1.896c0.522-3.519-1.916-6.807-5.436-7.33 s-6.808 1.914-7.331 5.434c-0.096 0.646-0.091 1.3 0 1.9c2.775 1.3 5.9 2.1 9.2 2.1 C99.005 174.2 100 174.1 101 173.939z"/><path fill="#FFFFFF" d="M109.892 145.304c-0.522 3.5 1.9 6.8 5.4 7.331c1.307 0.2 2.583-0.021 3.697-0.547 c-0.214-4.538-1.865-8.7-4.507-12.042C112.152 140.7 110.3 142.7 109.9 145.304z"/><path fill="#FFFFFF" d="M102.428 123.409c-16.357-2.429-31.585 8.861-34.014 25.216c-2.429 16.4 8.9 31.6 25.2 34 c16.356 2.4 31.584-8.859 34.014-25.216C130.072 141.1 118.8 125.8 102.4 123.409z M92.362 133.5 c0.673-4.535 4.91-7.675 9.444-7.002c4.535 0.7 7.7 4.9 7 9.445c-0.673 4.534-4.91 7.674-9.444 7 C94.831 142.3 91.7 138.1 92.4 133.532z M74.239 140.008c0.673-4.534 4.91-7.675 9.444-7.001 c4.535 0.7 7.7 4.9 7 9.445c-0.673 4.535-4.91 7.675-9.445 7.001C76.707 148.8 73.6 144.5 74.2 140.008z M78.507 167.854c-4.534-0.673-7.675-4.91-7.001-9.443c0.673-4.534 4.91-7.675 9.445-7.002c4.534 0.7 7.7 4.9 7 9.4 C87.279 165.4 83 168.5 78.5 167.854z M103.411 172.317c-0.674 4.534-4.911 7.675-9.444 7 c-4.535-0.673-7.675-4.911-7.001-9.445c0.673-4.534 4.91-7.675 9.444-7.001C100.942 163.5 104.1 167.8 103.4 172.317z M121.764 165.874c-0.674 4.534-4.91 7.675-9.443 7.002c-4.535-0.674-7.675-4.911-7.002-9.446c0.674-4.533 4.91-7.673 9.443-7 C119.296 157.1 122.4 161.3 121.8 165.874z M124.497 147.473c-0.674 4.534-4.909 7.673-9.444 7 c-4.534-0.674-7.674-4.91-7-9.444c0.674-4.534 4.909-7.675 9.444-7.001C122.029 138.7 125.2 142.9 124.5 147.473z"/><g><path fill="#FFFFFF" d="M102.428 123.409c-16.357-2.429-31.585 8.861-34.014 25.216c-2.429 16.4 8.9 31.6 25.2 34 c16.356 2.4 31.584-8.859 34.014-25.216C130.072 141.1 118.8 125.8 102.4 123.409z M117.496 138 c4.534 0.7 7.7 4.9 7 9.444c-0.674 4.534-4.909 7.673-9.444 7.001c-4.534-0.674-7.674-4.91-7-9.444 C108.726 140.5 113 137.4 117.5 138.029z M78.507 167.854c-4.534-0.673-7.675-4.91-7.001-9.443 c0.673-4.534 4.91-7.675 9.445-7.002c4.534 0.7 7.7 4.9 7 9.444C87.279 165.4 83 168.5 78.5 167.854z M81.24 149.453c-4.534-0.673-7.675-4.91-7.001-9.444c0.673-4.534 4.91-7.675 9.444-7.001c4.535 0.7 7.7 4.9 7 9.4 C90.012 147 85.8 150.1 81.2 149.453z M93.967 179.318c-4.535-0.673-7.675-4.911-7.001-9.445 c0.673-4.534 4.91-7.675 9.444-7.001c4.534 0.7 7.7 4.9 7 9.445C102.737 176.9 98.5 180 94 179.318z M99.364 142.975c-4.535-0.673-7.675-4.91-7.002-9.443c0.673-4.535 4.91-7.675 9.444-7.002c4.535 0.7 7.7 4.9 7 9.4 C108.136 140.5 103.9 143.6 99.4 142.975z M112.321 172.876c-4.535-0.674-7.675-4.911-7.002-9.444 c0.674-4.535 4.91-7.674 9.443-7.001c4.535 0.7 7.7 4.9 7 9.444C121.09 170.4 116.9 173.5 112.3 172.876z"/></g><path fill="none" d="M80.677 153.248c-3.52-0.522-6.809 1.916-7.331 5.435c-0.523 3.5 1.9 6.8 5.4 7.3 s6.809-1.914 7.331-5.434C86.634 157.1 84.2 153.8 80.7 153.248z"/><path fill="none" d="M96.136 164.713c-3.52-0.523-6.808 1.914-7.331 5.434c-0.523 3.5 1.9 6.8 5.4 7.3 c3.52 0.5 6.809-1.916 7.331-5.435C102.094 168.5 99.7 165.2 96.1 164.713z"/><path fill="none" d="M99.638 141.135c3.519 0.5 6.807-1.915 7.331-5.434c0.522-3.52-1.916-6.809-5.436-7.331 s-6.808 1.916-7.331 5.435C93.68 137.3 96.1 140.6 99.6 141.135z"/><path fill="none" d="M81.514 147.613c3.52 0.5 6.808-1.916 7.331-5.435c0.522-3.52-1.916-6.809-5.435-7.331 c-3.52-0.522-6.808 1.916-7.331 5.436C75.556 143.8 78 147.1 81.5 147.613z"/><path fill="none" d="M114.489 158.27c-3.52-0.521-6.808 1.916-7.331 5.437c-0.521 3.5 1.9 6.8 5.4 7.3 c3.52 0.5 6.808-1.916 7.331-5.435C120.447 162.1 118 158.8 114.5 158.27z"/><path fill="none" d="M109.892 145.304c-0.522 3.5 1.9 6.8 5.4 7.331c3.52 0.5 6.809-1.916 7.332-5.435 c0.522-3.52-1.916-6.808-5.435-7.331C113.704 139.3 110.4 141.8 109.9 145.304z"/><path fill="#FFFFFF" d="M94.614 132.308c-0.193 0.47-0.333 0.971-0.412 1.497c-0.522 3.5 1.9 6.8 5.4 7.3 c3.52 0.5 6.808-1.915 7.331-5.435c0.083-0.556 0.091-1.106 0.033-1.641c-2.732-1.296-5.787-2.022-9.012-2.022 C96.84 132 95.7 132.1 94.6 132.308z"/><path fill="#FFFFFF" d="M78.15 146.026c0.911 0.8 2.1 1.4 3.4 1.586c3.52 0.5 6.808-1.916 7.331-5.435 c0.382-2.579-0.825-5.032-2.88-6.365C82.398 138.3 79.6 141.9 78.2 146.026z"/><g><path fill="#FFFFFF" d="M117.915 159.914c-0.919-0.852-2.096-1.445-3.426-1.644c-3.52-0.521-6.808 1.916-7.331 5.4 c-0.395 2.7 0.9 5.2 3.1 6.5C113.778 167.7 116.5 164.1 117.9 159.914z"/><path fill="#FFFFFF" d="M103.14 173.518c1.927-0.485 3.748-1.235 5.422-2.209c-2.363-1.774-3.708-4.755-3.244-7.876 c0.674-4.535 4.91-7.674 9.443-7.001c1.394 0.2 2.7 0.8 3.7 1.535c0.296-1.251 0.486-2.544 0.547-3.871 c-1.233 0.435-2.586 0.585-3.97 0.38c-4.534-0.674-7.674-4.91-7-9.444c0.449-3.029 2.49-5.434 5.147-6.499 c-1.275-1.33-2.723-2.493-4.306-3.454c-0.014 0.297-0.04 0.596-0.084 0.896c-0.673 4.534-4.911 7.675-9.445 7 c-4.534-0.673-7.675-4.91-7.001-9.444c0.039-0.263 0.091-0.521 0.153-0.774c-1.716 0.46-3.344 1.134-4.857 2 c2.227 1.8 3.5 4.7 3 7.705c-0.673 4.535-4.91 7.675-9.445 7.001c-1.375-0.205-2.621-0.737-3.671-1.506 c-0.312 1.242-0.516 2.526-0.597 3.845c1.236-0.438 2.592-0.589 3.978-0.383c4.534 0.7 7.7 4.9 7 9.4 c-0.463 3.116-2.608 5.574-5.376 6.587c1.268 1.4 2.7 2.6 4.3 3.542c0.005-0.366 0.033-0.735 0.088-1.108 c0.673-4.534 4.91-7.675 9.444-7.001c4.534 0.7 7.7 4.9 7 9.445C103.349 172.7 103.3 173.1 103.1 173.518z"/></g><path fill="#FFFFFF" d="M86.111 160.579c0.522-3.52-1.915-6.808-5.435-7.331c-1.321-0.196-2.61 0.025-3.731 0.6 c0.151 4.5 1.7 8.7 4.3 12.084C83.736 165.3 85.7 163.2 86.1 160.579z"/></g></svg>