<?xml version="1.0" encoding="utf-8"?>
<!-- Generator: Adobe Illustrator 16.0.4, SVG Export Plug-In . SVG Version: 6.00 Build 0)  -->
<!DOCTYPE svg PUBLIC "-//W3C//DTD SVG 1.1//EN" "http://www.w3.org/Graphics/SVG/1.1/DTD/svg11.dtd">
<svg version="1.1" id="Layer_1" xmlns="http://www.w3.org/2000/svg" xmlns:xlink="http://www.w3.org/1999/xlink" x="0px" y="0px"
	 width="100px" height="100px" viewBox="0 0 100 100" enable-background="new 0 0 100 100" xml:space="preserve">
<g>
	<path fill="#FFFFFF" d="M54.59,84.378c0.47-0.956,0.803-1.999,0.968-3.108c0.857-5.771-3.141-11.163-8.912-12.02
		c-5.771-0.858-11.164,3.139-12.021,8.911c-0.158,1.06-0.15,2.106,0.001,3.115c4.551,2.21,9.66,3.452,15.06,3.452
		C51.351,84.729,52.987,84.606,54.59,84.378z"/>
	<path fill="#FFFFFF" d="M69.202,37.422c-0.857,5.771,3.141,11.163,8.912,12.021c2.143,0.318,4.234-0.035,6.061-0.898
		c-0.351-7.441-3.058-14.266-7.39-19.746C72.908,29.904,69.832,33.183,69.202,37.422z"/>
	<path fill="#FFFFFF" d="M56.963,1.519C30.141-2.465,5.171,16.05,1.188,42.868c-3.984,26.821,14.528,51.791,41.35,55.775
		c26.82,3.982,51.791-14.528,55.774-41.35C102.294,30.475,83.784,5.502,56.963,1.519z M40.458,18.118
		c1.104-7.435,8.052-12.585,15.487-11.481c7.436,1.104,12.586,8.052,11.481,15.487c-1.104,7.435-8.052,12.585-15.487,11.481
		C44.505,32.5,39.354,25.553,40.458,18.118z M10.74,28.739c1.104-7.435,8.051-12.585,15.486-11.481
		c7.436,1.104,12.586,8.052,11.482,15.487c-1.104,7.436-8.051,12.585-15.487,11.481C14.786,43.121,9.635,36.174,10.74,28.739z
		 M17.739,74.399c-7.435-1.104-12.585-8.051-11.481-15.485c1.104-7.436,8.051-12.586,15.487-11.482
		c7.435,1.104,12.585,8.051,11.481,15.487C32.122,70.354,25.174,75.504,17.739,74.399z M58.576,81.719
		c-1.105,7.435-8.053,12.585-15.487,11.48c-7.436-1.104-12.586-8.052-11.481-15.487c1.104-7.435,8.051-12.585,15.487-11.481
		C54.528,67.336,59.679,74.283,58.576,81.719z M88.671,71.153c-1.104,7.435-8.051,12.585-15.485,11.482
		c-7.436-1.105-12.587-8.054-11.482-15.488c1.105-7.435,8.052-12.584,15.486-11.48C84.624,56.771,89.775,63.719,88.671,71.153z
		 M93.152,40.979c-1.104,7.435-8.051,12.584-15.486,11.481c-7.436-1.105-12.585-8.051-11.48-15.486s8.051-12.585,15.486-11.481
		C89.106,26.597,94.258,33.544,93.152,40.979z"/>
	<g>
		<path fill="#FFFFFF" d="M56.963,1.519C30.141-2.465,5.171,16.05,1.188,42.868c-3.984,26.821,14.528,51.791,41.35,55.775
			c26.82,3.982,51.791-14.528,55.774-41.35C102.294,30.475,83.784,5.502,56.963,1.519z M81.672,25.493
			c7.435,1.104,12.586,8.051,11.48,15.486c-1.104,7.435-8.051,12.584-15.486,11.481c-7.436-1.105-12.585-8.051-11.48-15.486
			S74.236,24.388,81.672,25.493z M17.739,74.399c-7.435-1.104-12.585-8.051-11.481-15.485c1.104-7.436,8.051-12.586,15.487-11.482
			c7.435,1.104,12.585,8.051,11.481,15.487C32.122,70.354,25.174,75.504,17.739,74.399z M22.22,44.225
			c-7.435-1.104-12.585-8.051-11.48-15.486c1.104-7.435,8.051-12.585,15.486-11.481c7.436,1.104,12.586,8.052,11.482,15.487
			C36.603,40.18,29.656,45.329,22.22,44.225z M43.089,93.199c-7.436-1.104-12.586-8.052-11.481-15.487
			c1.104-7.435,8.051-12.585,15.487-11.481c7.434,1.105,12.584,8.053,11.482,15.488C57.471,89.153,50.523,94.304,43.089,93.199z
			 M51.939,33.604c-7.435-1.104-12.585-8.051-11.481-15.486c1.104-7.435,8.052-12.585,15.487-11.481
			c7.436,1.104,12.586,8.052,11.481,15.487C66.323,29.559,59.375,34.709,51.939,33.604z M73.186,82.636
			c-7.436-1.105-12.587-8.054-11.482-15.488c1.105-7.435,8.052-12.584,15.486-11.48c7.435,1.104,12.586,8.052,11.481,15.486
			S80.62,83.738,73.186,82.636z"/>
	</g>
	<path fill="none" d="M21.296,50.449c-5.771-0.857-11.164,3.142-12.021,8.912c-0.857,5.771,3.141,11.163,8.912,12.02
		c5.772,0.857,11.165-3.139,12.021-8.911C31.065,56.699,27.067,51.306,21.296,50.449z"/>
	<path fill="none" d="M46.646,69.25c-5.771-0.858-11.164,3.139-12.021,8.911c-0.857,5.771,3.14,11.162,8.912,12.021
		c5.771,0.857,11.165-3.141,12.021-8.912C56.415,75.499,52.417,70.106,46.646,69.25z"/>
	<path fill="none" d="M52.388,30.586c5.771,0.858,11.163-3.14,12.021-8.911c0.857-5.772-3.141-11.165-8.913-12.021
		c-5.771-0.857-11.163,3.141-12.021,8.912C42.619,24.337,46.617,29.73,52.388,30.586z"/>
	<path fill="none" d="M22.669,41.208c5.771,0.857,11.164-3.141,12.021-8.912c0.857-5.771-3.142-11.165-8.912-12.021
		c-5.772-0.857-11.164,3.141-12.021,8.913C12.899,34.958,16.897,40.351,22.669,41.208z"/>
	<path fill="none" d="M76.742,58.684c-5.771-0.856-11.164,3.141-12.022,8.913c-0.855,5.771,3.142,11.163,8.913,12.021
		s11.164-3.141,12.021-8.912C86.511,64.935,82.513,59.542,76.742,58.684z"/>
	<path fill="none" d="M69.202,37.422c-0.857,5.771,3.141,11.163,8.912,12.021c5.771,0.857,11.164-3.141,12.021-8.912
		c0.856-5.771-3.142-11.164-8.913-12.021C75.453,27.652,70.06,31.65,69.202,37.422z"/>
	<path fill="#FFFFFF" d="M44.15,16.112c-0.316,0.772-0.547,1.593-0.675,2.455c-0.857,5.771,3.141,11.164,8.912,12.02
		c5.771,0.858,11.163-3.14,12.021-8.911c0.135-0.912,0.148-1.814,0.054-2.691c-4.479-2.125-9.49-3.316-14.777-3.316
		C47.801,15.669,45.953,15.822,44.15,16.112z"/>
	<path fill="#FFFFFF" d="M17.153,38.607c1.493,1.346,3.382,2.284,5.516,2.601c5.771,0.857,11.164-3.141,12.021-8.912
		c0.627-4.228-1.352-8.25-4.723-10.437C24.119,25.936,19.589,31.773,17.153,38.607z"/>
	<g>
		<path fill="#FFFFFF" d="M82.36,61.379c-1.508-1.396-3.437-2.37-5.618-2.695c-5.771-0.856-11.164,3.141-12.022,8.913
			c-0.648,4.375,1.494,8.53,5.083,10.66C75.574,74.11,80.017,68.232,82.36,61.379z"/>
		<path fill="#FFFFFF" d="M58.131,83.687c3.16-0.795,6.146-2.024,8.893-3.623c-3.875-2.908-6.08-7.796-5.32-12.916
			c1.105-7.435,8.052-12.584,15.486-11.48c2.284,0.339,4.351,1.231,6.088,2.518c0.486-2.052,0.796-4.173,0.897-6.348
			c-2.023,0.713-4.242,0.959-6.509,0.623c-7.436-1.105-12.585-8.051-11.48-15.486c0.736-4.966,4.084-8.911,8.44-10.655
			c-2.091-2.182-4.465-4.088-7.062-5.664c-0.021,0.486-0.064,0.977-0.137,1.469c-1.104,7.435-8.052,12.585-15.487,11.481
			c-7.435-1.104-12.585-8.051-11.481-15.486c0.064-0.431,0.149-0.854,0.252-1.269c-2.814,0.755-5.484,1.86-7.966,3.26
			c3.651,2.937,5.699,7.676,4.963,12.635c-1.104,7.436-8.051,12.585-15.487,11.481c-2.254-0.335-4.297-1.209-6.021-2.47
			c-0.512,2.036-0.845,4.143-0.978,6.305c2.027-0.717,4.251-0.966,6.523-0.628c7.435,1.104,12.585,8.051,11.481,15.487
			c-0.759,5.109-4.277,9.139-8.816,10.801c2.079,2.234,4.451,4.188,7.054,5.81c0.009-0.601,0.053-1.206,0.144-1.817
			c1.104-7.435,8.051-12.585,15.487-11.481c7.434,1.105,12.584,8.053,11.482,15.488C58.475,82.395,58.324,83.051,58.131,83.687z"/>
	</g>
	<path fill="#FFFFFF" d="M30.208,62.47c0.857-5.771-3.141-11.164-8.912-12.021c-2.166-0.322-4.279,0.041-6.119,0.924
		c0.249,7.443,2.853,14.287,7.091,19.815C26.312,70.188,29.56,66.839,30.208,62.47z"/>
</g>
</svg>
