<svg xmlns="http://www.w3.org/2000/svg" xmlns:xlink="http://www.w3.org/1999/xlink" version="1.1" x="0px" y="0px" width="270.438px" height="213.057px" viewBox="0 0 270.438 213.057" enable-background="new 0 0 270.438 213.057" xml:space="preserve"><style>.style0{fill:	#FFFFFF;}</style><g><path d="M270.401 89.052c0.477-6.705-3.631-13.835-13.863-14.621c-3.459-0.242-6.931-0.505-10.397-0.757 c-3.146-0.241-6.302-0.474-9.449-0.706l-2.964 41.9l6.504 0.453l1.028-14.553l9.146 0.646l11.658 15.449l7.979 0.6 l-12.345-16.062l1.475-0.192C268.283 100 270.1 93.1 270.4 89.052z M255.859 96.052c-0.271 0-0.555-0.01-0.847-0.028 l-13.352-0.947l1.099-15.643l13.362 0.947c5.748 0.4 8 4.5 7.8 8.4C263.654 92.1 261.4 96.1 255.9 96.052z" class="style0"/><polygon points="207.2,106.4 206.8,94.9 230.4,94.1 230.2,88.1 206.6,88.9 206.2,77.2 230.7,76.3 230.5,70.1 199.5,71.1 200.8,110.5 200.9,111.3 200.9,112.2 200.9,113 203.5,112.9 204.4,112.9 205.2,112.9 231.9,112 231.7,105.6" class="style0"/><polygon points="199.2,112.1 181.1,111.3 182.7,75.3 177.6,75.1 177.7,81.7 175.9,81.7 175.4,91.9 176.6,91.9 176.8,101.2 175,101.3 174.4,116.9 203.3,118.2 203.5,114.6 199.3,114.8" class="style0"/><polygon points="241.8,52.6 210.3,49.8 211.6,35.4 241.9,38.1 242.6,30 212.3,27.3 213.6,12.7 245,15.5 245.8,6.9 205.5,3.4 201.7,47.4 201.2,52.9 201,55.2 200.9,56.1 200.8,57.7 241,61.3" class="style0"/><polygon points="188.2,5.1 188.2,5.9 188.5,9.5 188.6,11.2 188.7,12.8 191.7,55 199.4,54.5 200,47.4 196.7,0 187.9,0.6 188.1,4.2" class="style0"/><path d="M145.165 32.724l8.017 25.229l9.833 0.837l23.95-46.348L186.5 5.799l-6.252-0.533l-21.399 43.7 L145.195 2.289l-9.98-0.848l3.729 11.729C143.047 18.7 145.4 25.5 145.2 32.724z" class="style0"/><polygon points="174.9,93.7 174.5,93.7 173.7,93.7 153,94 152.8,80.4 174.2,80 175.1,80 175.9,80 175.8,74.1 175.8,73.8 174.5,73.8 148.2,74.3 147.7,81 146.3,80.9 146.9,116.2 153.4,116.1 153.1,99.9 173.4,99.6 174.3,99.6 175,99.5" class="style0"/><polygon points="146.5,73.5 146.6,72.9 144.4,72.8 117,70.8 114.6,103.4 113.9,112.5 120.4,113 121.6,96.9 143.4,98.5 143.9,92.6 122,91 123,77.4 144.6,79 145.4,79.1 146.1,79.1 146.2,77.4 146.5,74.3" class="style0"/><path d="M130.875 31.513c1.292 0.2 2.542-0.021 3.641-0.545c-0.202-4.478-1.835-8.571-4.437-11.869 c-2.329 0.655-4.188 2.633-4.568 5.185C124.997 27.8 127.4 31 130.9 31.513z" class="style0"/><path d="M122.818 42.434c-0.394 2.6 0.9 5.1 3.1 6.414c3.469-2.491 6.141-6.03 7.543-10.154 c-0.908-0.847-2.068-1.432-3.378-1.624C126.58 36.6 123.3 39 122.8 42.434z" class="style0"/><path d="M115.397 20.179c3.479 0.5 6.715-1.896 7.23-5.365c0.081-0.555 0.091-1.1 0.03-1.624 c-2.692-1.271-5.707-1.986-8.887-1.986c-1.129 0-2.249 0.091-3.327 0.271c-0.189 0.464-0.32 0.958-0.4 1.5 C109.527 16.4 111.9 19.7 115.4 20.179z" class="style0"/><path d="M111.947 43.423c-3.469-0.514-6.716 1.896-7.229 5.364c-0.091 0.636-0.091 1.3 0 1.9 c2.732 1.3 5.8 2.1 9 2.078c0.999 0 1.987-0.071 2.945-0.213c0.282-0.574 0.484-1.199 0.584-1.876 C117.827 47.2 115.4 43.9 111.9 43.423z" class="style0"/><path d="M112.079 76.156l-6.454 0.182l0.693 24.143c0.111 3.901-0.837 7.182-2.723 9.5 c-1.946 2.349-4.86 3.64-8.431 3.74c-0.162 0.011-0.323 0.011-0.484 0.011c-3.647 0-6.604-1.169-8.662-3.328 c-2.064-2.147-3.248-5.294-3.355-9.217l-0.688-24.144l-6.413 0.19l-0.027 0.454l0.675 23.7 c0.384 13.4 9.7 18.1 18.4 18.131c0.242 0 0.5 0 0.716-0.01c5.338-0.15 9.772-1.896 12.817-5.042 c2.693-2.783 4.266-6.646 4.619-11.284c0.061-0.918 0.091-1.865 0.061-2.844L112.079 76.156z" class="style0"/><path d="M104.757 21.198c0.374-2.541-0.816-4.962-2.843-6.272c-3.521 2.45-6.242 5.959-7.694 10.1 c0.897 0.8 2 1.4 3.3 1.562C100.996 27.1 104.2 24.7 104.8 21.198z" class="style0"/><path d="M102.065 39.349c0.517-3.47-1.896-6.717-5.362-7.23c-1.304-0.191-2.572 0.03-3.674 0.6 c0.145 4.5 1.7 8.6 4.3 11.92C99.715 44 101.7 42 102.1 39.349z" class="style0"/><path d="M37.537 60.757l-3.459-42.534l21.287 24.636l1.22-0.102l17.436-27.649L77.46 57.51l8.874-0.716 l-0.958-11.708c-2.501-5.375-3.521-11.505-2.582-17.799c0.189-1.312 0.463-2.592 0.827-3.832L81.907 2.42L71.097 3.3 L55.133 29.476L35.136 6.222L24.255 7.11l4.417 54.374L37.537 60.757z" class="style0"/><path d="M85.961 41.698c0.312 0.9 0.7 1.8 1.1 2.632c4.034 8.7 12.2 15.3 22.4 16.8 c16.135 2.4 31.15-8.742 33.54-24.878c0.185-1.21 0.283-2.419 0.312-3.609c0.028-1.049 0-2.078-0.09-3.086 c-0.354-4.567-1.768-8.895-4.034-12.707c-0.524-0.888-1.102-1.745-1.714-2.571c-4.498-6.041-11.297-10.377-19.344-11.566 c-14.884-2.217-28.84 7.121-32.771 21.26c-0.252 0.906-0.464 1.845-0.625 2.803c-0.062 0.264-0.104 0.534-0.144 0.8 c-0.212 1.393-0.312 2.772-0.319 4.146c-0.021 1.8 0.1 3.5 0.4 5.185C84.982 38.5 85.4 40.1 86 41.698z M119.118 50.925c-0.062 0.413-0.151 0.808-0.272 1.19c-1.149 3.821-4.979 6.322-9.035 5.717c-4.104-0.615-7.049-4.175-6.999-8.218 c0.014-0.363 0.041-0.736 0.091-1.101c0.666-4.467 4.843-7.562 9.317-6.896C116.687 42.3 119.8 46.5 119.1 50.925z M137.219 44.573c-0.656 4.478-4.841 7.572-9.308 6.907c-1.395-0.202-2.645-0.747-3.7-1.554c-2.34-1.734-3.671-4.68-3.207-7.765 c0.666-4.469 4.84-7.562 9.314-6.908c1.372 0.2 2.6 0.7 3.7 1.521C136.331 38.5 137.7 41.5 137.2 44.573z M128.779 17.617c1.303-0.534 2.756-0.727 4.234-0.503c3.046 0.5 5.5 2.5 6.5 5.232c0.478 1.3 0.6 2.7 0.4 4.1 c-0.464 3.116-2.622 5.557-5.405 6.535c-1.22 0.434-2.552 0.574-3.913 0.373c-4.467-0.666-7.57-4.842-6.906-9.318 C124.14 21 126.2 18.7 128.8 17.617z M108.227 12.676c0.04-0.263 0.091-0.515 0.151-0.756 c0.998-4.063 4.951-6.776 9.167-6.151c4.165 0.6 7.1 4.3 7 8.432c-0.01 0.292-0.041 0.595-0.081 0.9 c-0.666 4.469-4.84 7.562-9.308 6.908C110.657 21.3 107.6 17.1 108.2 12.676z M90.347 19.1 c0.666-4.468 4.854-7.562 9.318-6.897c1.479 0.2 2.8 0.8 3.9 1.715c2.198 1.8 3.4 4.6 3 7.6 c-0.666 4.479-4.843 7.572-9.318 6.907c-1.354-0.202-2.582-0.727-3.62-1.481C91.255 25.1 89.9 22.2 90.3 19.06z M87.655 37.21c0.467-3.104 2.622-5.557 5.405-6.523c1.21-0.435 2.552-0.585 3.913-0.384c4.467 0.7 7.6 4.8 6.9 9.3 c-0.454 3.065-2.562 5.496-5.294 6.495c-1.24 0.464-2.611 0.625-4.017 0.412c-3.812-0.563-6.625-3.69-6.968-7.36 C87.544 38.5 87.6 37.9 87.7 37.21z" class="style0"/><polygon points="66.5,90.5 43.4,89 44.6,70.6 38.1,70.2 36.4,95.9 36.3,98.5 35.8,106.2 35.6,108.5 35.4,112.1 41.9,112.5 43,94.9 66.2,96.4 65,114 71.5,114.4 73.8,77.6 74,75.5 74.1,72.5 67.7,72.1" class="style0"/><path d="M17.721 88.842C14.031 88.7 7.2 88.5 6.7 83.487c-0.293-3.206 1.983-6.866 9.256-7.532 c0.464-0.04 0.928-0.071 1.382-0.071c3.832 0 7.6 1.5 9.6 3.691l4.851-3.076c-2.812-4.043-7.422-6.09-13.715-6.09 c-0.928 0-1.896 0.04-2.884 0.132C7.264 71.336-0.431 75.7 0.3 83.819C1.153 92.9 9.2 94.4 17.8 94.6 c2.703 0 10.9 0.2 11.5 6.252c0.414 4.549-3.489 7.756-10.175 8.371c-0.615 0.049-1.23 0.08-1.838 0.1 c-5.102 0-9.206-1.986-11.402-5.496l-5.082 3.247c3.499 6.1 9.5 8.6 18.7 7.796c5.768-0.522 11.658-2.684 14.512-7.06 l0.736-11.627C32.343 90.6 26.1 89.1 17.7 88.842z" class="style0"/></g><path d="M14.344 146.501C6 150.435-5.086 141.5 2.6 130.566c0 0-1.755-1.438-2.373-1.952 c-0.35-0.289-0.393-0.625 0.222-0.718c0.979-0.144 5.88-0.932 7.838-1.252c0.397-0.063 0.6 0.2 0.6 0.7 c-0.048 0.927-0.229 5.638-0.292 7.517c-0.022 0.688-0.269 0.732-0.729 0.312c-0.562-0.518-2.127-2.087-2.127-2.087 c-5.615 6.3 1.1 12.7 7.6 10.151c0.234-0.096 0.347-0.002 0.4 0.207c0.208 0.6 0.7 1.8 0.9 2.5 C14.741 146.3 14.7 146.3 14.3 146.501z" class="style0"/><path d="M10.783 124.767c8.343-3.935 19.4 5 11.7 15.935c0 0 1.8 1.4 2.4 2 c0.347 0.3 0.4 0.625-0.225 0.718c-0.979 0.144-5.88 0.931-7.838 1.252c-0.396 0.063-0.622-0.183-0.595-0.731 c0.045-0.927 0.23-5.638 0.292-7.517c0.023-0.688 0.266-0.733 0.729-0.312c0.562 0.5 2.1 2.1 2.1 2.1 c5.611-6.271-1.062-12.748-7.57-10.151c-0.237 0.094-0.347 0.001-0.418-0.208c-0.208-0.607-0.664-1.798-0.899-2.518 C10.387 125 10.4 124.9 10.8 124.767z" class="style0"/><path d="M49.225 140.385c-1.398 0.848-2.96 1.284-4.717 1.284c-5.133 0-9.294-4.161-9.294-9.294 s4.161-9.294 9.294-9.294s9.294 4.2 9.3 9.294c0 1.739-0.52 3.456-1.351 4.85c0 0 5.3 5.4 6.4 6.3 c1.028 1 1.4 1.6 0 2.961c-1.354 1.396-2.1 0.891-2.591 0.451C54.86 145.8 49.2 140.4 49.2 140.385z M50.252 132.374c0-3.173-2.572-5.745-5.745-5.745s-5.745 2.572-5.745 5.745s2.572 5.7 5.7 5.745S50.252 135.5 50.3 132.4 z" class="style0"/><g><path d="M263.401 190.245c0.357-5.029-2.723-10.376-10.397-10.967c-2.594-0.182-5.197-0.378-7.798-0.566 c-2.358-0.182-4.727-0.354-7.087-0.528l-2.224 31.425l4.878 0.34l0.771-10.915l6.857 0.485l8.744 11.587l5.983 0.423l-9.258-12.047 l1.104-0.146C261.813 198.4 263.2 193.3 263.4 190.245z M252.494 195.494c-0.203 0-0.416-0.007-0.636-0.021l-10.014-0.711 l0.824-11.731l10.021 0.711c4.312 0.3 6 3.4 5.8 6.301C258.34 192.6 256.7 195.5 252.5 195.494z" class="style0"/><polygon points="216,203.3 215.7,194.6 233.4,194 233.3,189.5 215.5,190.1 215.3,181.3 233.6,180.7 233.5,176 210.3,176.8 211.2,206.3 211.3,206.9 211.3,207.6 211.3,208.2 213.2,208.2 213.9,208.1 214.5,208.1 234.5,207.4 234.4,202.7" class="style0"/><polygon points="210,207.5 196.4,206.9 197.6,179.9 193.8,179.8 193.9,184.7 192.5,184.7 192.2,192.4 193.1,192.4 193.2,199.4 191.9,199.4 191.4,211.1 213.1,212.1 213.2,209.4 210.1,209.5" class="style0"/><polygon points="242,162.9 218.3,160.8 219.3,150 242.1,152 242.6,145.9 219.8,143.9 220.8,133 244.4,135.1 244.9,128.6 214.8,126 211.9,159 211.5,163.1 211.4,164.9 211.3,165.5 211.2,166.8 241.4,169.4" class="style0"/><polygon points="201.7,127.3 201.8,127.9 202,130.6 202,131.8 202.1,133.1 204.4,164.7 210.1,164.3 210.6,159 208.1,123.5 201.5,123.9 201.7,126.6" class="style0"/><path d="M169.475 147.998l6.012 18.923l7.375 0.628l17.964-34.761l-0.35-4.982l-4.688-0.4l-16.051 32.7 l-10.239-34.979l-7.486-0.637l2.797 8.797C167.886 137.5 169.6 142.6 169.5 147.998z" class="style0"/><polygon points="191.8,193.7 191.5,193.7 190.8,193.7 175.4,194 175.2,183.8 191.3,183.5 191.9,183.5 192.5,183.5 192.5,179.1 192.5,178.8 191.5,178.8 171.7,179.2 171.4,184.2 170.3,184.1 170.8,210.6 175.7,210.5 175.5,198.4 190.7,198.1 191.3,198.1 191.9,198.1" class="style0"/><polygon points="170.5,178.5 170.5,178.2 168.9,178 148.4,176.5 146.5,201 146,207.8 150.9,208.2 151.8,196.1 168.2,197.3 168.5,192.9 152.1,191.7 152.9,181.5 169,182.7 169.7,182.8 170.2,182.8 170.3,181.5 170.4,179.2" class="style0"/><path d="M158.757 147.09c0.969 0.1 1.906-0.015 2.729-0.406c-0.15-3.358-1.376-6.431-3.326-8.903 c-1.747 0.492-3.142 1.975-3.428 3.889C154.348 144.3 156.2 146.7 158.8 147.09z" class="style0"/><path d="M152.713 155.281c-0.295 2 0.7 3.9 2.3 4.811c2.603-1.867 4.605-4.521 5.656-7.614 c-0.681-0.636-1.551-1.074-2.533-1.219C155.535 150.9 153.1 152.7 152.7 155.281z" class="style0"/><path d="M147.148 138.59c2.61 0.4 5.036-1.422 5.423-4.023c0.062-0.415 0.068-0.824 0.023-1.218 c-2.02-0.952-4.281-1.489-6.665-1.489c-0.847 0-1.687 0.066-2.495 0.203c-0.143 0.348-0.241 0.719-0.301 1.1 C142.745 135.8 144.5 138.2 147.1 138.59z" class="style0"/><path d="M144.561 156.023c-2.602-0.385-5.037 1.422-5.422 4.022c-0.068 0.478-0.068 1 0 1.4 c2.049 1 4.4 1.6 6.8 1.559c0.749 0 1.49-0.054 2.209-0.159c0.212-0.432 0.363-0.899 0.438-1.407 C148.971 158.8 147.2 156.4 144.6 156.023z" class="style0"/><path d="M144.66 180.573l-4.842 0.136l0.521 18.106c0.084 2.927-0.628 5.386-2.042 7.1 c-1.46 1.763-3.646 2.729-6.323 2.807c-0.121 0.008-0.242 0.008-0.363 0.008c-2.735 0-4.951-0.877-6.495-2.496 c-1.55-1.611-2.438-3.971-2.519-6.912l-0.516-18.108l-4.811 0.145l-0.021 0.341l0.506 17.8 c0.288 10 7.3 13.6 13.8 13.599c0.183 0 0.4 0 0.536-0.009c4.003-0.112 7.33-1.422 9.613-3.78 c2.021-2.087 3.199-4.984 3.465-8.463c0.045-0.688 0.068-1.399 0.045-2.134L144.66 180.573z" class="style0"/><path d="M139.168 139.354c0.28-1.905-0.612-3.723-2.132-4.704c-2.643 1.838-4.683 4.469-5.771 7.6 c0.673 0.6 1.5 1 2.5 1.172C136.348 143.8 138.8 142 139.2 139.354z" class="style0"/><path d="M137.149 152.967c0.388-2.602-1.422-5.035-4.021-5.423c-0.978-0.144-1.929 0.023-2.755 0.4 c0.107 3.4 1.3 6.4 3.2 8.94C135.387 156.5 136.9 154.9 137.1 152.967z" class="style0"/><path d="M88.753 169.024l-2.594-31.901l15.965 18.478l0.915-0.075l13.076-20.738l2.579 31.803l6.655-0.537 l-0.718-8.779c-1.876-4.031-2.642-8.629-1.938-13.351c0.145-0.982 0.349-1.942 0.621-2.874l-1.285-15.775l-8.107 0.7 l-11.973 19.634l-14.998-17.44l-8.161 0.666l3.312 40.78L88.753 169.024z" class="style0"/><path d="M125.072 154.73c0.233 0.7 0.5 1.3 0.8 1.974c3.025 6.5 9.2 11.4 16.8 12.6 c12.101 1.8 23.361-6.557 25.155-18.659c0.137-0.906 0.212-1.812 0.233-2.707c0.021-0.785 0-1.559-0.068-2.313 c-0.266-3.425-1.323-6.671-3.024-9.53c-0.394-0.666-0.825-1.309-1.285-1.928c-3.373-4.531-8.472-7.783-14.507-8.676 c-11.163-1.663-21.63 5.341-24.579 15.943c-0.189 0.681-0.349 1.384-0.469 2.104c-0.047 0.196-0.077 0.399-0.107 0.6 c-0.159 1.045-0.232 2.08-0.24 3.109c-0.016 1.3 0.1 2.6 0.3 3.888C124.336 152.4 124.7 153.6 125.1 154.73z M149.94 161.65c-0.047 0.31-0.113 0.604-0.205 0.893c-0.86 2.866-3.733 4.742-6.775 4.287c-3.077-0.461-5.286-3.131-5.249-6.163 c0.01-0.271 0.031-0.552 0.067-0.825c0.499-3.35 3.632-5.672 6.988-5.172C148.115 155.2 150.4 158.3 149.9 161.65z M163.515 156.885c-0.492 3.358-3.631 5.68-6.98 5.182c-1.045-0.152-1.982-0.562-2.774-1.165c-1.755-1.302-2.753-3.51-2.405-5.823 c0.499-3.352 3.63-5.673 6.986-5.182c1.029 0.2 2 0.6 2.7 1.142C162.849 152.3 163.9 154.6 163.5 156.885z M157.184 136.669c0.978-0.4 2.066-0.545 3.176-0.378c2.285 0.3 4.1 1.9 4.9 3.925c0.356 0.9 0.5 2 0.3 3.1 c-0.35 2.337-1.967 4.167-4.056 4.9c-0.913 0.324-1.913 0.432-2.935 0.279c-3.351-0.499-5.679-3.631-5.181-6.988 C153.705 139.2 155.2 137.4 157.2 136.669z M141.771 132.962c0.03-0.195 0.067-0.386 0.113-0.565 c0.749-3.049 3.714-5.083 6.875-4.614c3.124 0.5 5.4 3.2 5.2 6.323c-0.009 0.22-0.031 0.445-0.062 0.7 c-0.499 3.351-3.629 5.672-6.979 5.181C143.594 139.5 141.3 136.3 141.8 132.962z M128.361 137.8 c0.499-3.35 3.641-5.672 6.989-5.173c1.109 0.2 2.1 0.6 2.9 1.286c1.647 1.3 2.6 3.5 2.2 5.7 c-0.498 3.358-3.632 5.68-6.988 5.182c-1.015-0.152-1.937-0.545-2.715-1.112C129.041 142.3 128 140.1 128.4 137.75z M126.341 151.364c0.35-2.329 1.967-4.168 4.054-4.895c0.908-0.324 1.914-0.438 2.937-0.286c3.35 0.5 5.7 3.6 5.2 7 c-0.341 2.299-1.922 4.122-3.971 4.871c-0.931 0.349-1.958 0.469-3.013 0.31c-2.857-0.422-4.969-2.769-5.226-5.521 C126.258 152.3 126.3 151.9 126.3 151.364z" class="style0"/><polygon points="110.5,191.3 93.2,190.2 94,176.4 89.2,176.1 87.9,195.4 87.8,197.3 87.4,203.1 87.3,204.8 87.2,207.5 92,207.8 92.9,194.6 110.2,195.7 109.4,208.9 114.2,209.2 116,181.7 116.1,180.1 116.2,177.8 111.4,177.5" class="style0"/><path d="M73.891 190.087c-2.767-0.074-7.918-0.219-8.265-4.017c-0.22-2.404 1.488-5.149 6.941-5.649 c0.349-0.028 0.696-0.053 1.036-0.053c2.874 0 5.7 1.1 7.2 2.768l3.639-2.307c-2.109-3.032-5.566-4.566-10.286-4.566 c-0.696 0-1.422 0.029-2.163 0.099c-5.96 0.598-11.731 3.902-11.171 9.959c0.628 6.8 6.7 7.9 13.1 8.1 c2.027 0 8.2 0.1 8.6 4.688c0.311 3.412-2.617 5.817-7.632 6.278c-0.461 0.037-0.923 0.062-1.378 0.1 c-3.825 0-6.903-1.49-8.552-4.123l-3.812 2.437c2.625 4.6 7.1 6.5 14 5.847c4.325-0.392 8.743-2.013 10.885-5.294 l0.552-8.721C84.858 191.4 80.2 190.3 73.9 190.087z" class="style0"/></g></svg>