<?xml version="1.0" encoding="utf-8"?>
<!-- Generator: Adobe Illustrator 16.0.4, SVG Export Plug-In . SVG Version: 6.00 Build 0)  -->
<!DOCTYPE svg PUBLIC "-//W3C//DTD SVG 1.1//EN" "http://www.w3.org/Graphics/SVG/1.1/DTD/svg11.dtd">
<svg version="1.1" id="Layer_1" xmlns="http://www.w3.org/2000/svg" xmlns:xlink="http://www.w3.org/1999/xlink" x="0px" y="0px"
	 width="270.438px" height="213.057px" viewBox="0 0 270.438 213.057" enable-background="new 0 0 270.438 213.057"
	 xml:space="preserve">
<g>
	<path fill="#FFFFFF" d="M270.401,89.052c0.477-6.705-3.631-13.835-13.863-14.621c-3.459-0.242-6.931-0.505-10.397-0.757
		c-3.146-0.241-6.302-0.474-9.449-0.706l-2.964,41.9l6.504,0.453l1.028-14.553l9.146,0.646l11.658,15.449l7.979,0.562
		l-12.345-16.062l1.475-0.192C268.283,99.983,270.118,93.077,270.401,89.052z M255.859,96.052c-0.271,0-0.555-0.01-0.847-0.028
		l-13.352-0.947l1.099-15.643l13.362,0.947c5.748,0.403,8.037,4.508,7.765,8.4C263.654,92.14,261.406,96.052,255.859,96.052z"/>
	<polygon fill="#FFFFFF" points="207.173,106.418 206.79,94.862 230.406,94.065 230.215,88.115 206.587,88.901 206.205,77.153 
		230.689,76.337 230.487,70.075 199.539,71.115 200.85,110.453 200.88,111.319 200.91,112.177 200.94,113.022 203.522,112.933 
		204.379,112.913 205.236,112.882 231.879,111.985 231.667,105.603 	"/>
	<polygon fill="#FFFFFF" points="199.186,112.097 181.125,111.31 182.688,75.299 177.565,75.077 177.676,81.692 175.891,81.722 
		175.448,91.927 176.607,91.908 176.769,101.226 175.044,101.255 174.359,116.917 203.29,118.176 203.452,114.647 199.276,114.789 	
		"/>
	<polygon fill="#FFFFFF" points="241.802,52.559 210.329,49.806 211.589,35.446 241.933,38.108 242.649,29.96 212.305,27.308 
		213.576,12.706 245.048,15.459 245.795,6.918 205.539,3.398 201.687,47.416 201.212,52.901 201.011,55.242 200.931,56.098 
		200.789,57.742 241.035,61.26 	"/>
	<polygon fill="#FFFFFF" points="188.174,5.073 188.235,5.939 188.487,9.51 188.597,11.153 188.719,12.796 191.673,55.031 
		199.357,54.495 199.973,47.396 196.654,0 187.861,0.615 188.113,4.205 	"/>
	<path fill="#FFFFFF" d="M145.165,32.724l8.017,25.229l9.833,0.837l23.95-46.348L186.5,5.799l-6.252-0.533l-21.399,43.664
		L145.195,2.289l-9.98-0.848l3.729,11.729C143.047,18.676,145.357,25.513,145.165,32.724z"/>
	<polygon fill="#FFFFFF" points="174.923,93.651 174.51,93.662 173.653,93.672 153.041,94.024 152.809,80.401 174.248,80.039 
		175.105,80.019 175.932,80.009 175.841,74.149 175.831,73.806 174.51,73.826 148.18,74.281 147.686,80.978 146.294,80.875 
		146.9,116.181 153.414,116.069 153.142,99.914 173.401,99.573 174.257,99.551 175.024,99.541 	"/>
	<polygon fill="#FFFFFF" points="146.526,73.454 146.566,72.949 144.438,72.788 117,70.75 114.57,103.373 113.894,112.51 
		120.388,112.994 121.588,96.89 143.42,98.502 143.854,92.633 122.031,91.01 123.04,77.417 144.55,79.021 145.417,79.09 
		146.113,79.142 146.233,77.448 146.466,74.31 	"/>
	<path fill="#FFFFFF" d="M130.875,31.513c1.292,0.19,2.542-0.021,3.641-0.545c-0.202-4.478-1.835-8.571-4.437-11.869
		c-2.329,0.655-4.188,2.633-4.568,5.185C124.997,27.752,127.406,30.999,130.875,31.513z"/>
	<path fill="#FFFFFF" d="M122.818,42.434c-0.394,2.632,0.897,5.144,3.066,6.414c3.469-2.491,6.141-6.03,7.543-10.154
		c-0.908-0.847-2.068-1.432-3.378-1.624C126.58,36.555,123.333,38.965,122.818,42.434z"/>
	<path fill="#FFFFFF" d="M115.397,20.179c3.479,0.514,6.715-1.896,7.23-5.365c0.081-0.555,0.091-1.1,0.03-1.624
		c-2.692-1.271-5.707-1.986-8.887-1.986c-1.129,0-2.249,0.091-3.327,0.271c-0.189,0.464-0.32,0.958-0.4,1.474
		C109.527,16.417,111.928,19.654,115.397,20.179z"/>
	<path fill="#FFFFFF" d="M111.947,43.423c-3.469-0.514-6.716,1.896-7.229,5.364c-0.091,0.636-0.091,1.271,0.01,1.876
		c2.732,1.331,5.811,2.078,9.045,2.078c0.999,0,1.987-0.071,2.945-0.213c0.282-0.574,0.484-1.199,0.584-1.876
		C117.827,47.184,115.417,43.948,111.947,43.423z"/>
	<path fill="#FFFFFF" d="M112.079,76.156l-6.454,0.182l0.693,24.143c0.111,3.901-0.837,7.182-2.723,9.471
		c-1.946,2.349-4.86,3.64-8.431,3.74c-0.162,0.011-0.323,0.011-0.484,0.011c-3.647,0-6.604-1.169-8.662-3.328
		c-2.064-2.147-3.248-5.294-3.355-9.217l-0.688-24.144l-6.413,0.19l-0.027,0.454l0.675,23.678
		c0.384,13.371,9.729,18.131,18.354,18.131c0.242,0,0.478,0,0.716-0.01c5.338-0.15,9.772-1.896,12.817-5.042
		c2.693-2.783,4.266-6.646,4.619-11.284c0.061-0.918,0.091-1.865,0.061-2.844L112.079,76.156z"/>
	<path fill="#FFFFFF" d="M104.757,21.198c0.374-2.541-0.816-4.962-2.843-6.272c-3.521,2.45-6.242,5.959-7.694,10.074
		c0.897,0.815,2.027,1.371,3.307,1.562C100.996,27.076,104.244,24.676,104.757,21.198z"/>
	<path fill="#FFFFFF" d="M102.065,39.349c0.517-3.47-1.896-6.717-5.362-7.23c-1.304-0.191-2.572,0.03-3.674,0.555
		c0.145,4.479,1.705,8.593,4.259,11.92C99.715,43.998,101.671,41.98,102.065,39.349z"/>
	<path fill="#FFFFFF" d="M37.537,60.757l-3.459-42.534l21.287,24.636l1.22-0.102l17.436-27.649L77.46,57.51l8.874-0.716
		l-0.958-11.708c-2.501-5.375-3.521-11.505-2.582-17.799c0.189-1.312,0.463-2.592,0.827-3.832L81.907,2.42L71.097,3.298
		L55.133,29.476L35.136,6.222L24.255,7.11l4.417,54.374L37.537,60.757z"/>
	<path fill="#FFFFFF" d="M85.961,41.698c0.312,0.896,0.665,1.773,1.078,2.632c4.034,8.703,12.229,15.269,22.438,16.779
		c16.135,2.391,31.15-8.742,33.54-24.878c0.185-1.21,0.283-2.419,0.312-3.609c0.028-1.049,0-2.078-0.09-3.086
		c-0.354-4.567-1.768-8.895-4.034-12.707c-0.524-0.888-1.102-1.745-1.714-2.571c-4.498-6.041-11.297-10.377-19.344-11.566
		c-14.884-2.217-28.84,7.121-32.771,21.26c-0.252,0.906-0.464,1.845-0.625,2.803c-0.062,0.264-0.104,0.534-0.144,0.808
		c-0.212,1.393-0.312,2.772-0.319,4.146c-0.021,1.755,0.13,3.488,0.423,5.185C84.982,38.532,85.406,40.145,85.961,41.698z
		 M119.118,50.925c-0.062,0.413-0.151,0.808-0.272,1.19c-1.149,3.821-4.979,6.322-9.035,5.717c-4.104-0.615-7.049-4.175-6.999-8.218
		c0.014-0.363,0.041-0.736,0.091-1.101c0.666-4.467,4.843-7.562,9.317-6.896C116.687,42.272,119.783,46.458,119.118,50.925z
		 M137.219,44.573c-0.656,4.478-4.841,7.572-9.308,6.907c-1.395-0.202-2.645-0.747-3.7-1.554c-2.34-1.734-3.671-4.68-3.207-7.765
		c0.666-4.469,4.84-7.562,9.314-6.908c1.372,0.202,2.612,0.736,3.661,1.521C136.331,38.522,137.683,41.476,137.219,44.573z
		 M128.779,17.617c1.303-0.534,2.756-0.727,4.234-0.503c3.046,0.452,5.456,2.541,6.474,5.232c0.478,1.261,0.646,2.651,0.438,4.073
		c-0.464,3.116-2.622,5.557-5.405,6.535c-1.22,0.434-2.552,0.574-3.913,0.373c-4.467-0.666-7.57-4.842-6.906-9.318
		C124.14,21.025,126.156,18.656,128.779,17.617z M108.227,12.676c0.04-0.263,0.091-0.515,0.151-0.756
		c0.998-4.063,4.951-6.776,9.167-6.151c4.165,0.625,7.14,4.296,6.979,8.432c-0.01,0.292-0.041,0.595-0.081,0.887
		c-0.666,4.469-4.84,7.562-9.308,6.908C110.657,21.328,107.562,17.143,108.227,12.676z M90.347,19.06
		c0.666-4.468,4.854-7.562,9.318-6.897c1.479,0.222,2.824,0.827,3.923,1.715c2.198,1.754,3.429,4.607,2.985,7.594
		c-0.666,4.479-4.843,7.572-9.318,6.907c-1.354-0.202-2.582-0.727-3.62-1.481C91.255,25.15,89.883,22.175,90.347,19.06z
		 M87.655,37.21c0.467-3.104,2.622-5.557,5.405-6.523c1.21-0.435,2.552-0.585,3.913-0.384c4.467,0.666,7.563,4.841,6.897,9.317
		c-0.454,3.065-2.562,5.496-5.294,6.495c-1.24,0.464-2.611,0.625-4.017,0.412c-3.812-0.563-6.625-3.69-6.968-7.36
		C87.544,38.522,87.554,37.876,87.655,37.21z"/>
	<polygon fill="#FFFFFF" points="66.528,90.476 43.416,88.993 44.585,70.64 38.081,70.227 36.438,95.92 36.276,98.492 
		35.782,106.187 35.641,108.456 35.409,112.076 41.913,112.49 43.042,94.882 66.156,96.354 65.026,113.961 71.47,114.375 
		73.82,77.606 73.95,75.531 74.143,72.525 67.708,72.112 	"/>
	<path fill="#FFFFFF" d="M17.721,88.842C14.031,88.741,7.163,88.55,6.7,83.487c-0.293-3.206,1.983-6.866,9.256-7.532
		c0.464-0.04,0.928-0.071,1.382-0.071c3.832,0,7.573,1.463,9.62,3.691l4.851-3.076c-2.812-4.043-7.422-6.09-13.715-6.09
		c-0.928,0-1.896,0.04-2.884,0.132C7.264,71.336-0.431,75.742,0.316,83.819C1.153,92.937,9.2,94.408,17.762,94.64
		c2.703,0.041,10.921,0.172,11.486,6.252c0.414,4.549-3.489,7.756-10.175,8.371c-0.615,0.049-1.23,0.08-1.838,0.08
		c-5.102,0-9.206-1.986-11.402-5.496l-5.082,3.247c3.499,6.121,9.526,8.644,18.706,7.796c5.768-0.522,11.658-2.684,14.512-7.06
		l0.736-11.627C32.343,90.565,26.141,89.104,17.721,88.842z"/>
</g>
<path fill="#FFFFFF" d="M14.344,146.501C6,150.435-5.086,141.51,2.625,130.566c0,0-1.755-1.438-2.373-1.952
	c-0.35-0.289-0.393-0.625,0.222-0.718c0.979-0.144,5.88-0.932,7.838-1.252c0.397-0.063,0.623,0.183,0.598,0.733
	c-0.048,0.927-0.229,5.638-0.292,7.517c-0.022,0.688-0.269,0.732-0.729,0.312c-0.562-0.518-2.127-2.087-2.127-2.087
	c-5.615,6.271,1.058,12.748,7.57,10.151c0.234-0.096,0.347-0.002,0.419,0.207c0.208,0.606,0.664,1.799,0.896,2.518
	C14.741,146.278,14.682,146.342,14.344,146.501z"/>
<path fill="#FFFFFF" d="M10.783,124.767c8.343-3.935,19.43,4.989,11.719,15.935c0,0,1.755,1.438,2.374,1.952
	c0.347,0.289,0.389,0.625-0.225,0.718c-0.979,0.144-5.88,0.931-7.838,1.252c-0.396,0.063-0.622-0.183-0.595-0.731
	c0.045-0.927,0.23-5.638,0.292-7.517c0.023-0.688,0.266-0.733,0.729-0.312c0.562,0.518,2.127,2.088,2.127,2.088
	c5.611-6.271-1.062-12.748-7.57-10.151c-0.237,0.094-0.347,0.001-0.418-0.208c-0.208-0.607-0.664-1.798-0.899-2.518
	C10.387,124.99,10.445,124.926,10.783,124.767z"/>
<path fill="#FFFFFF" d="M49.225,140.385c-1.398,0.848-2.96,1.284-4.717,1.284c-5.133,0-9.294-4.161-9.294-9.294
	s4.161-9.294,9.294-9.294s9.294,4.161,9.294,9.294c0,1.739-0.52,3.456-1.351,4.85c0,0,5.342,5.353,6.367,6.338
	c1.028,0.985,1.357,1.562,0,2.961c-1.354,1.396-2.1,0.891-2.591,0.451C54.86,145.755,49.225,140.385,49.225,140.385z
	 M50.252,132.374c0-3.173-2.572-5.745-5.745-5.745s-5.745,2.572-5.745,5.745s2.572,5.745,5.745,5.745S50.252,135.547,50.252,132.374
	z"/>
<g>
	<path fill="#FFFFFF" d="M263.401,190.245c0.357-5.029-2.723-10.376-10.397-10.967c-2.594-0.182-5.197-0.378-7.798-0.566
		c-2.358-0.182-4.727-0.354-7.087-0.528l-2.224,31.425l4.878,0.34l0.771-10.915l6.857,0.485l8.744,11.587l5.983,0.423l-9.258-12.047
		l1.104-0.146C261.813,198.443,263.19,193.264,263.401,190.245z M252.494,195.494c-0.203,0-0.416-0.007-0.636-0.021l-10.014-0.711
		l0.824-11.731l10.021,0.711c4.312,0.303,6.027,3.38,5.823,6.301C258.34,192.561,256.656,195.494,252.494,195.494z"/>
	<polygon fill="#FFFFFF" points="215.981,203.269 215.694,194.602 233.406,194.004 233.262,189.542 215.541,190.131 215.254,181.32 
		233.617,180.708 233.465,176.011 210.255,176.791 211.238,206.296 211.26,206.945 211.283,207.588 211.305,208.222 
		213.241,208.156 213.885,208.141 214.528,208.117 234.51,207.445 234.351,202.657 	"/>
	<polygon fill="#FFFFFF" points="209.99,207.529 196.445,206.938 197.616,179.93 193.774,179.764 193.858,184.724 192.519,184.747 
		192.187,192.402 193.055,192.386 193.177,199.375 191.883,199.397 191.369,211.144 213.069,212.087 213.19,209.441 
		210.057,209.548 	"/>
	<polygon fill="#FFFFFF" points="241.951,162.874 218.348,160.81 219.292,150.04 242.05,152.036 242.587,145.926 219.829,143.937 
		220.782,132.986 244.387,135.05 244.948,128.644 214.755,126.004 211.865,159.018 211.51,163.131 211.359,164.888 211.299,165.529 
		211.193,166.763 241.377,169.402 	"/>
	<polygon fill="#FFFFFF" points="201.731,127.26 201.777,127.909 201.965,130.588 202.048,131.82 202.14,133.052 204.356,164.729 
		210.117,164.327 210.58,159.002 208.09,123.456 201.496,123.917 201.685,126.61 	"/>
	<path fill="#FFFFFF" d="M169.475,147.998l6.012,18.923l7.375,0.628l17.964-34.761l-0.35-4.982l-4.688-0.4l-16.051,32.748
		l-10.239-34.979l-7.486-0.637l2.797,8.797C167.886,137.462,169.617,142.59,169.475,147.998z"/>
	<polygon fill="#FFFFFF" points="191.793,193.694 191.483,193.702 190.84,193.71 175.381,193.974 175.207,183.756 191.286,183.486 
		191.929,183.469 192.549,183.462 192.481,179.068 192.474,178.81 191.483,178.825 171.736,179.166 171.365,184.189 
		170.321,184.113 170.776,210.591 175.661,210.507 175.457,198.392 190.651,198.135 191.293,198.118 191.868,198.112 	"/>
	<polygon fill="#FFFFFF" points="170.494,178.546 170.525,178.167 168.929,178.047 148.351,176.519 146.528,200.986 
		146.021,207.838 150.891,208.201 151.791,196.123 168.165,197.332 168.49,192.931 152.124,191.713 152.881,181.519 
		169.013,182.721 169.663,182.773 170.185,182.812 170.275,181.541 170.449,179.188 	"/>
	<path fill="#FFFFFF" d="M158.757,147.09c0.969,0.145,1.906-0.015,2.729-0.406c-0.15-3.358-1.376-6.431-3.326-8.903
		c-1.747,0.492-3.142,1.975-3.428,3.889C154.348,144.27,156.156,146.705,158.757,147.09z"/>
	<path fill="#FFFFFF" d="M152.713,155.281c-0.295,1.975,0.674,3.858,2.301,4.811c2.603-1.867,4.605-4.521,5.656-7.614
		c-0.681-0.636-1.551-1.074-2.533-1.219C155.535,150.872,153.1,152.679,152.713,155.281z"/>
	<path fill="#FFFFFF" d="M147.148,138.59c2.61,0.386,5.036-1.422,5.423-4.023c0.062-0.415,0.068-0.824,0.023-1.218
		c-2.02-0.952-4.281-1.489-6.665-1.489c-0.847,0-1.687,0.066-2.495,0.203c-0.143,0.348-0.241,0.719-0.301,1.104
		C142.745,135.769,144.546,138.196,147.148,138.59z"/>
	<path fill="#FFFFFF" d="M144.561,156.023c-2.602-0.385-5.037,1.422-5.422,4.022c-0.068,0.478-0.068,0.953,0.008,1.407
		c2.049,0.998,4.356,1.559,6.783,1.559c0.749,0,1.49-0.054,2.209-0.159c0.212-0.432,0.363-0.899,0.438-1.407
		C148.971,158.843,147.163,156.416,144.561,156.023z"/>
	<path fill="#FFFFFF" d="M144.66,180.573l-4.842,0.136l0.521,18.106c0.084,2.927-0.628,5.386-2.042,7.103
		c-1.46,1.763-3.646,2.729-6.323,2.807c-0.121,0.008-0.242,0.008-0.363,0.008c-2.735,0-4.951-0.877-6.495-2.496
		c-1.55-1.611-2.438-3.971-2.519-6.912l-0.516-18.108l-4.811,0.145l-0.021,0.341l0.506,17.759
		c0.288,10.027,7.298,13.599,13.766,13.599c0.183,0,0.357,0,0.536-0.009c4.003-0.112,7.33-1.422,9.613-3.78
		c2.021-2.087,3.199-4.984,3.465-8.463c0.045-0.688,0.068-1.399,0.045-2.134L144.66,180.573z"/>
	<path fill="#FFFFFF" d="M139.168,139.354c0.28-1.905-0.612-3.723-2.132-4.704c-2.643,1.838-4.683,4.469-5.771,7.556
		c0.673,0.611,1.521,1.028,2.479,1.172C136.348,143.763,138.783,141.962,139.168,139.354z"/>
	<path fill="#FFFFFF" d="M137.149,152.967c0.388-2.602-1.422-5.035-4.021-5.423c-0.978-0.144-1.929,0.023-2.755,0.416
		c0.107,3.358,1.278,6.444,3.192,8.94C135.387,156.454,136.854,154.941,137.149,152.967z"/>
	<path fill="#FFFFFF" d="M88.753,169.024l-2.594-31.901l15.965,18.478l0.915-0.075l13.076-20.738l2.579,31.803l6.655-0.537
		l-0.718-8.779c-1.876-4.031-2.642-8.629-1.938-13.351c0.145-0.982,0.349-1.942,0.621-2.874l-1.285-15.775l-8.107,0.658
		l-11.973,19.634l-14.998-17.44l-8.161,0.666l3.312,40.78L88.753,169.024z"/>
	<path fill="#FFFFFF" d="M125.072,154.73c0.233,0.672,0.499,1.33,0.81,1.974c3.025,6.527,9.173,11.45,16.828,12.585
		c12.101,1.793,23.361-6.557,25.155-18.659c0.137-0.906,0.212-1.812,0.233-2.707c0.021-0.785,0-1.559-0.068-2.313
		c-0.266-3.425-1.323-6.671-3.024-9.53c-0.394-0.666-0.825-1.309-1.285-1.928c-3.373-4.531-8.472-7.783-14.507-8.676
		c-11.163-1.663-21.63,5.341-24.579,15.943c-0.189,0.681-0.349,1.384-0.469,2.104c-0.047,0.196-0.077,0.399-0.107,0.604
		c-0.159,1.045-0.232,2.08-0.24,3.109c-0.016,1.315,0.099,2.616,0.317,3.888C124.336,152.355,124.656,153.564,125.072,154.73z
		 M149.94,161.65c-0.047,0.31-0.113,0.604-0.205,0.893c-0.86,2.866-3.733,4.742-6.775,4.287c-3.077-0.461-5.286-3.131-5.249-6.163
		c0.01-0.271,0.031-0.552,0.067-0.825c0.499-3.35,3.632-5.672,6.988-5.172C148.115,155.159,150.438,158.299,149.94,161.65z
		 M163.515,156.885c-0.492,3.358-3.631,5.68-6.98,5.182c-1.045-0.152-1.982-0.562-2.774-1.165c-1.755-1.302-2.753-3.51-2.405-5.823
		c0.499-3.352,3.63-5.673,6.986-5.182c1.029,0.151,1.959,0.553,2.746,1.142C162.849,152.347,163.863,154.563,163.515,156.885z
		 M157.184,136.669c0.978-0.4,2.066-0.545,3.176-0.378c2.285,0.339,4.094,1.906,4.855,3.925c0.356,0.945,0.485,1.989,0.328,3.057
		c-0.35,2.337-1.967,4.167-4.056,4.9c-0.913,0.324-1.913,0.432-2.935,0.279c-3.351-0.499-5.679-3.631-5.181-6.988
		C153.705,139.224,155.218,137.448,157.184,136.669z M141.771,132.962c0.03-0.195,0.067-0.386,0.113-0.565
		c0.749-3.049,3.714-5.083,6.875-4.614c3.124,0.469,5.354,3.222,5.234,6.323c-0.009,0.22-0.031,0.445-0.062,0.666
		c-0.499,3.351-3.629,5.672-6.979,5.181C143.594,139.452,141.272,136.313,141.771,132.962z M128.361,137.75
		c0.499-3.35,3.641-5.672,6.989-5.173c1.109,0.166,2.117,0.62,2.941,1.286c1.647,1.314,2.571,3.456,2.238,5.694
		c-0.498,3.358-3.632,5.68-6.988,5.182c-1.015-0.152-1.937-0.545-2.715-1.112C129.041,142.318,128.013,140.087,128.361,137.75z
		 M126.341,151.364c0.35-2.329,1.967-4.168,4.054-4.895c0.908-0.324,1.914-0.438,2.937-0.286c3.35,0.5,5.672,3.63,5.173,6.987
		c-0.341,2.299-1.922,4.122-3.971,4.871c-0.931,0.349-1.958,0.469-3.013,0.31c-2.857-0.422-4.969-2.769-5.226-5.521
		C126.258,152.347,126.266,151.863,126.341,151.364z"/>
	<polygon fill="#FFFFFF" points="110.496,191.313 93.162,190.2 94.039,176.436 89.161,176.126 87.929,195.396 87.807,197.325 
		87.437,203.096 87.331,204.798 87.157,207.513 92.035,207.823 92.882,194.617 110.218,195.721 109.369,208.927 114.203,209.238 
		115.965,181.659 116.063,180.104 116.207,177.849 111.381,177.539 	"/>
	<path fill="#FFFFFF" d="M73.891,190.087c-2.767-0.074-7.918-0.219-8.265-4.017c-0.22-2.404,1.488-5.149,6.941-5.649
		c0.349-0.028,0.696-0.053,1.036-0.053c2.874,0,5.681,1.096,7.215,2.768l3.639-2.307c-2.109-3.032-5.566-4.566-10.286-4.566
		c-0.696,0-1.422,0.029-2.163,0.099c-5.96,0.598-11.731,3.902-11.171,9.959c0.628,6.839,6.664,7.942,13.085,8.116
		c2.027,0.029,8.189,0.129,8.614,4.688c0.311,3.412-2.617,5.817-7.632,6.278c-0.461,0.037-0.923,0.062-1.378,0.062
		c-3.825,0-6.903-1.49-8.552-4.123l-3.812,2.437c2.625,4.591,7.146,6.481,14.029,5.847c4.325-0.392,8.743-2.013,10.885-5.294
		l0.552-8.721C84.858,191.379,80.206,190.283,73.891,190.087z"/>
</g>
</svg>
